<svg xmlns="http://www.w3.org/2000/svg" width="26" height="26" viewBox="0 0 26 26" fill="none">
  <g clip-path="url(#clip0_1582_730)">
    <path d="M25.0716 13.0738C25.0716 6.36618 19.667 0.928589 13.0001 0.928589C6.33327 0.928589 0.928711 6.36618 0.928711 13.0738C0.928711 19.1357 5.34303 24.1603 11.114 25.0714V16.5845H8.04897V13.0738H11.114V10.3981C11.114 7.35416 12.9162 5.67281 15.6735 5.67281C16.9938 5.67281 18.3757 5.91002 18.3757 5.91002V8.89888H16.8536C15.3541 8.89888 14.8863 9.83515 14.8863 10.7966V13.0738H18.2342L17.699 16.5845H14.8863V25.0714C20.6572 24.1603 25.0716 19.1357 25.0716 13.0738Z" fill="#0F0E0E"/>
  </g>
  <defs>
    <clipPath id="clip0_1582_730">
      <rect width="26" height="26" fill="white"/>
    </clipPath>
  </defs>
</svg>