<svg xmlns="http://www.w3.org/2000/svg" width="26" height="26" viewBox="0 0 26 26" fill="none">
  <path d="M13.0067 3.67379C16.0477 3.67379 16.4078 3.68712 17.6038 3.74045C18.7153 3.78934 19.3155 3.976 19.7156 4.13154C20.2447 4.33598 20.6271 4.58486 21.0227 4.98039C21.4229 5.38037 21.6674 5.75813 21.8719 6.28699C22.0275 6.68698 22.2143 7.29139 22.2632 8.398C22.3165 9.59794 22.3299 9.95793 22.3299 12.9933C22.3299 16.0332 22.3165 16.3932 22.2632 17.5887C22.2143 18.6997 22.0275 19.2997 21.8719 19.6997C21.6674 20.2285 21.4184 20.6107 21.0227 21.0063C20.6226 21.4063 20.2447 21.6507 19.7156 21.8551C19.3155 22.0107 18.7108 22.1973 17.6038 22.2462C16.4034 22.2995 16.0433 22.3129 13.0067 22.3129C9.96563 22.3129 9.60551 22.2995 8.40954 22.2462C7.29805 22.1973 6.69785 22.0107 6.29771 21.8551C5.76864 21.6507 5.38629 21.4018 4.9906 21.0063C4.59046 20.6063 4.34593 20.2285 4.14142 19.6997C3.98581 19.2997 3.79908 18.6953 3.75017 17.5887C3.69682 16.3887 3.68348 16.0287 3.68348 12.9933C3.68348 9.95348 3.69682 9.5935 3.75017 8.398C3.79908 7.28695 3.98581 6.68698 4.14142 6.28699C4.34593 5.75813 4.5949 5.37593 4.9906 4.98039C5.39073 4.58041 5.76864 4.33598 6.29771 4.13154C6.69785 3.976 7.3025 3.78934 8.40954 3.74045C9.60551 3.68712 9.96563 3.67379 13.0067 3.67379ZM13.0067 1.625C9.91672 1.625 9.52993 1.63833 8.31618 1.69166C7.10687 1.74499 6.27548 1.94054 5.55523 2.22053C4.80386 2.51385 4.16809 2.90049 3.53676 3.53602C2.90099 4.1671 2.51419 4.80262 2.22076 5.54925C1.94066 6.27366 1.74504 7.10029 1.69169 8.30912C1.63834 9.52684 1.625 9.91348 1.625 13.0022C1.625 16.091 1.63834 16.4776 1.69169 17.6909C1.74504 18.8997 1.94066 19.7308 2.22076 20.4507C2.51419 21.2018 2.90099 21.8373 3.53676 22.4684C4.16809 23.0995 4.80386 23.4906 5.55079 23.7795C6.27548 24.0595 7.10243 24.255 8.31173 24.3083C9.52548 24.3617 9.91228 24.375 13.0022 24.375C16.0922 24.375 16.479 24.3617 17.6927 24.3083C18.902 24.255 19.7334 24.0595 20.4537 23.7795C21.2006 23.4906 21.8364 23.0995 22.4677 22.4684C23.099 21.8373 23.4903 21.2018 23.7792 20.4552C24.0593 19.7308 24.255 18.9042 24.3083 17.6953C24.3617 16.4821 24.375 16.0954 24.375 13.0067C24.375 9.91793 24.3617 9.53128 24.3083 8.31801C24.255 7.10918 24.0593 6.27811 23.7792 5.55814C23.4991 4.80262 23.1123 4.1671 22.4766 3.53602C21.8452 2.90494 21.2095 2.51385 20.4626 2.22497C19.7379 1.94498 18.9109 1.74944 17.7016 1.69611C16.4834 1.63833 16.0966 1.625 13.0067 1.625Z" fill="#0F0E0E"/>
  <path d="M13.0067 7.15805C9.7789 7.15805 7.16023 9.7757 7.16023 13.0022C7.16023 16.2287 9.7789 18.8464 13.0067 18.8464C16.2344 18.8464 18.8531 16.2287 18.8531 13.0022C18.8531 9.7757 16.2344 7.15805 13.0067 7.15805ZM13.0067 16.7931C10.9126 16.7931 9.21426 15.0954 9.21426 13.0022C9.21426 10.909 10.9126 9.21128 13.0067 9.21128C15.1007 9.21128 16.7991 10.909 16.7991 13.0022C16.7991 15.0954 15.1007 16.7931 13.0067 16.7931Z" fill="#0F0E0E"/>
  <path d="M20.4492 6.92699C20.4492 7.68251 19.8357 8.29137 19.0843 8.29137C18.3285 8.29137 17.7194 7.67806 17.7194 6.92699C17.7194 6.17147 18.3329 5.56261 19.0843 5.56261C19.8357 5.56261 20.4492 6.17591 20.4492 6.92699Z" fill="#0F0E0E"/>
</svg>