<svg xmlns="http://www.w3.org/2000/svg" width="26" height="26" viewBox="0 0 26 26" fill="none">
  <path d="M22.4975 1.85718H3.50205C3.06574 1.85718 2.6473 2.0305 2.33878 2.33902C2.03026 2.64754 1.85693 3.06598 1.85693 3.5023V22.4978C1.85693 22.9341 2.03026 23.3525 2.33878 23.6611C2.6473 23.9696 3.06574 24.1429 3.50205 24.1429H22.4975C22.9338 24.1429 23.3523 23.9696 23.6608 23.6611C23.9693 23.3525 24.1426 22.9341 24.1426 22.4978V3.5023C24.1426 3.06598 23.9693 2.64754 23.6608 2.33902C23.3523 2.0305 22.9338 1.85718 22.4975 1.85718ZM8.49931 20.8418H5.14872V10.1988H8.49931V20.8418ZM6.8217 8.72396C6.44163 8.72182 6.07071 8.60715 5.75576 8.3944C5.4408 8.18166 5.19593 7.88038 5.05203 7.5286C4.90814 7.17682 4.87168 6.7903 4.94725 6.41781C5.02282 6.04533 5.20704 5.70358 5.47665 5.43569C5.74626 5.1678 6.08919 4.98578 6.46215 4.91261C6.83511 4.83943 7.2214 4.87837 7.57225 5.02452C7.9231 5.17067 8.22279 5.41748 8.43351 5.73379C8.64423 6.0501 8.75652 6.42175 8.75622 6.80182C8.7598 7.05628 8.71212 7.30886 8.61602 7.5445C8.51991 7.78014 8.37735 7.99401 8.19682 8.17338C8.0163 8.35275 7.80151 8.49394 7.56526 8.58853C7.329 8.68312 7.07613 8.72918 6.8217 8.72396ZM20.8493 20.8511H17.5003V15.0367C17.5003 13.3219 16.7713 12.7927 15.8304 12.7927C14.8368 12.7927 13.8618 13.5417 13.8618 15.08V20.8511H10.5112V10.2066H13.7334V11.6815H13.7767C14.1001 11.0268 15.233 9.90789 16.9617 9.90789C18.8312 9.90789 20.8509 11.0175 20.8509 14.2675L20.8493 20.8511Z" fill="#0F0E0E"/>
</svg>