<svg xmlns="http://www.w3.org/2000/svg" width="26" height="26" viewBox="0 0 26 26" fill="none">
<g clip-path="url(#clip0_1582_724)">
<path fill-rule="evenodd" clip-rule="evenodd" d="M24.6163 5.25273C25.0197 5.65873 25.3094 6.16355 25.4564 6.71669C26 8.75828 26 13.0158 26 13.0158C26 13.0158 26 17.2733 25.4564 19.3149C25.3094 19.868 25.0197 20.3728 24.6163 20.7788C24.2129 21.1848 23.7099 21.4777 23.1577 21.6283C21.125 22.1749 13 22.1749 13 22.1749C13 22.1749 4.875 22.1749 2.84227 21.6283C2.29009 21.4777 1.78713 21.1848 1.38373 20.7788C0.980326 20.3728 0.690631 19.868 0.543636 19.3149C0 17.2733 0 13.0158 0 13.0158C0 13.0158 0 8.75828 0.543636 6.71669C0.690631 6.16355 0.980326 5.65873 1.38373 5.25273C1.78713 4.84674 2.29009 4.55382 2.84227 4.40328C4.875 3.85669 13 3.85669 13 3.85669C13 3.85669 21.125 3.85669 23.1577 4.40328C23.7099 4.55382 24.2129 4.84674 24.6163 5.25273ZM17.1364 13.0158L10.3409 9.14981V16.8819L17.1364 13.0158Z" fill="#0F0E0E"/>
</g>
<defs>
<clipPath id="clip0_1582_724">
<rect width="26" height="26" fill="white"/>
</clipPath>
</defs>
</svg>