<svg xmlns:inkscape="http://www.inkscape.org/namespaces/inkscape" xmlns:sodipodi="http://sodipodi.sourceforge.net/DTD/sodipodi-0.dtd" xmlns="http://www.w3.org/2000/svg" xmlns:svg="http://www.w3.org/2000/svg" version="1.1" id="svg2" width="21.333332" height="21.333332" viewBox="0 0 21.333332 21.333332" sodipodi:docname="Yanolja_Symbol_Favicon_Light_Grey.ai"><script xmlns=""/>
  <defs id="defs6">
    <clipPath clipPathUnits="userSpaceOnUse" id="clipPath16">
      <path d="M 0,16 H 16 V 0 H 0 Z" id="path14"/>
    </clipPath>
  </defs>
  <sodipodi:namedview id="namedview4" pagecolor="#ffffff" bordercolor="#000000" borderopacity="0.25" inkscape:showpageshadow="2" inkscape:pageopacity="0.0" inkscape:pagecheckerboard="0" inkscape:deskcolor="#d1d1d1"/>
  <g id="g8" inkscape:groupmode="layer" inkscape:label="Yanolja_Symbol_Favicon_Light_Grey" transform="matrix(1.3333333,0,0,-1.3333333,0,21.333333)">
    <g id="g10">
      <g id="g12" clip-path="url(#clipPath16)">
        <g id="g18" transform="translate(12)">
          <path d="m 0,0 h -8 c -2.209,0 -4,1.791 -4,4 v 8 c 0,2.209 1.791,4 4,4 h 8 c 2.209,0 4,-1.791 4,-4 V 4 C 4,1.791 2.209,0 0,0" style="fill:#f54b1e;fill-opacity:1;fill-rule:nonzero;stroke:none" id="path20"/>
        </g>
        <g id="g22" transform="translate(11.3337,10.9696)">
          <path d="m 0,0 c 0.36,-0.118 0.697,-0.254 1.008,-0.405 0.075,-0.037 0.1,0.023 0.083,0.073 C 0.978,0.01 0.845,0.336 0.694,0.645 0.575,0.887 0.38,1.082 0.138,1.201 -0.171,1.352 -0.497,1.485 -0.839,1.598 -0.889,1.615 -0.95,1.594 -0.912,1.515 -0.762,1.203 -0.625,0.867 -0.507,0.507 -0.428,0.267 -0.24,0.079 0,0" style="fill:#f5ebe1;fill-opacity:1;fill-rule:nonzero;stroke:none" id="path24"/>
        </g>
        <g id="g26" transform="translate(8.599,4.9379)">
          <path d="m 0,0 c -0.372,-0.02 -0.459,0.191 -0.453,0.442 0.013,0.507 0.021,1.044 0.026,1.602 0.002,0.27 0.124,0.487 0.49,0.49 C 0.666,2.539 1.245,2.549 1.787,2.563 1.972,2.568 2.125,2.482 2.113,2.23 2.095,1.819 2.059,1.418 2.009,1.032 1.981,0.808 2.081,0.648 2.358,0.703 2.837,0.797 3.359,0.937 3.755,1.075 3.963,1.147 4.114,1.328 4.148,1.545 4.22,2 4.258,2.473 4.258,2.956 4.258,3.17 4.145,3.245 3.992,3.255 3.675,3.275 3.325,3.293 2.95,3.309 2.726,3.318 2.551,3.4 2.534,3.72 2.498,4.39 2.411,5.03 2.283,5.627 2.234,5.857 2.055,6.038 1.825,6.088 1.254,6.211 0.579,6.303 -0.056,6.337 -0.296,6.35 -0.483,6.478 -0.497,6.783 -0.513,7.148 -0.53,7.487 -0.549,7.796 -0.558,7.931 -0.661,8.062 -0.849,8.062 -1.56,8.062 -2.246,7.98 -2.891,7.828 -3.139,7.769 -3.344,7.596 -3.444,7.361 -3.585,7.029 -3.71,6.67 -3.817,6.289 -3.867,6.113 -4.004,5.974 -4.181,5.925 -4.425,5.856 -4.659,5.78 -4.884,5.698 -5.064,5.632 -5.199,5.48 -5.246,5.293 -5.332,4.95 -5.398,4.626 -5.454,4.176 c -0.021,-0.175 0.117,-0.26 0.257,-0.238 0.319,0.05 0.627,0.09 0.992,0.129 0.241,0.025 0.432,0.215 0.457,0.456 0.027,0.256 0.06,0.506 0.098,0.75 0.04,0.249 0.235,0.445 0.484,0.484 0.453,0.072 0.93,0.125 1.423,0.152 0.399,0.022 0.505,-0.208 0.498,-0.483 C -1.257,4.929 -1.266,4.404 -1.27,3.858 -1.273,3.594 -1.388,3.381 -1.751,3.378 -2.453,3.372 -3.122,3.359 -3.74,3.341 -4.027,3.333 -4.257,3.21 -4.253,2.809 -4.244,2.069 -4.175,1.364 -4.068,0.738 -4.033,0.536 -4.091,0.335 -4.416,0.418 -4.633,0.477 -4.844,0.541 -5.047,0.61 -5.194,0.66 -5.23,0.556 -5.205,0.461 c 0.128,-0.47 0.29,-0.915 0.482,-1.327 0.082,-0.174 0.225,-0.313 0.401,-0.388 0.31,-0.133 0.636,-0.247 0.975,-0.344 0.229,-0.065 0.249,0.088 0.203,0.215 -0.098,0.27 -0.188,0.557 -0.265,0.859 -0.041,0.157 -0.011,0.326 0.256,0.276 0.483,-0.091 1.128,-0.16 1.566,-0.181 0.226,-0.011 0.372,-0.083 0.383,-0.362 0.012,-0.302 0.027,-0.586 0.042,-0.851 0.009,-0.166 0.075,-0.296 0.314,-0.296 0.521,0 1.029,0.042 1.516,0.122 0.204,0.033 0.371,0.179 0.433,0.376 0.12,0.376 0.224,0.787 0.311,1.226 C 1.447,-0.034 1.408,0.141 1.114,0.103 0.754,0.055 0.372,0.02 0,0" style="fill:#f5ebe1;fill-opacity:1;fill-rule:nonzero;stroke:none" id="path28"/>
        </g>
      </g>
    </g>
  </g>
</svg>