<svg xmlns="http://www.w3.org/2000/svg" style="display: none;">
    <!-- Icon Arrow Left -->
    <symbol id="icon_arrow_left" viewBox="0 0 15 14" fill="currentColor">
        <path d="M10.5 1L7 4.5L4.5 7L10.5 13" stroke="currentColor" stroke-width="1.4" stroke-linecap="round"/>
    </symbol>
    
    <!-- Icon Arrow Right -->
    <symbol id="icon_arrow_right" viewBox="0 0 15 14" fill="currentColor">
        <path d="M4.5 13L10.5 7L4.5 0.999999" stroke="currentColor" stroke-width="1.4" stroke-linecap="round"/>
    </symbol>
    
    <!-- Icon Play -->
    <symbol id="icon_play" viewBox="0 0 9 10" fill="currentColor">
        <path d="M7.8216 4.576C8.13494 4.77184 8.13494 5.22817 7.8216 5.424L1.265 9.52188C0.931974 9.73002 0.5 9.49059 0.5 9.09788L0.5 0.902123C0.5 0.509405 0.931976 0.269984 1.265 0.478124L7.8216 4.576Z" fill="#0F0E0E"/>
    </symbol>
    
    <!-- Icon Pause -->
    <symbol id="icon_pause" viewBox="0 0 8 10" fill="currentColor">
        <rect x="0.5" width="2" height="10" fill="currentColor"/>
        <rect x="5.5" width="2" height="10" fill="currentColor"/>
    </symbol>
    
    <!-- Lang Arrow Black -->
    <symbol id="lang_arrow_black" viewBox="0 0 12 8" fill="currentColor">
        <path d="M11.7997 1.79883L6.34951 7.249L5.30176 6.20126L10.7519 0.751083L11.7997 1.79883Z" fill="black"/>
        <path d="M6.3501 7.24902L0.899923 1.79885L1.94767 0.751103L7.39784 6.20128L6.3501 7.24902Z" fill="black"/>
    </symbol>
    
    <!-- Arrow Right -->
    <symbol id="arrow_right" viewBox="0 0 15 14" fill="none">
        <path d="M4.5 13L10.5 7L4.5 0.999999" stroke="#7C7D81" stroke-width="1.4" stroke-linecap="round"/>
    </symbol>
    
    <!-- SNS: YouTube -->
    <symbol id="youtube" viewBox="0 0 26 26" fill="none">
        <g clip-path="url(#clip0_1582_724)">
            <path fill-rule="evenodd" clip-rule="evenodd" d="M24.6163 5.25273C25.0197 5.65873 25.3094 6.16355 25.4564 6.71669C26 8.75828 26 13.0158 26 13.0158C26 13.0158 26 17.2733 25.4564 19.3149C25.3094 19.868 25.0197 20.3728 24.6163 20.7788C24.2129 21.1848 23.7099 21.4777 23.1577 21.6283C21.125 22.1749 13 22.1749 13 22.1749C13 22.1749 4.875 22.1749 2.84227 21.6283C2.29009 21.4777 1.78713 21.1848 1.38373 20.7788C0.980326 20.3728 0.690631 19.868 0.543636 19.3149C0 17.2733 0 13.0158 0 13.0158C0 13.0158 0 8.75828 0.543636 6.71669C0.690631 6.16355 0.980326 5.65873 1.38373 5.25273C1.78713 4.84674 2.29009 4.55382 2.84227 4.40328C4.875 3.85669 13 3.85669 13 3.85669C13 3.85669 21.125 3.85669 23.1577 4.40328C23.7099 4.55382 24.2129 4.84674 24.6163 5.25273ZM17.1364 13.0158L10.3409 9.14981V16.8819L17.1364 13.0158Z" fill="#0F0E0E"/>
        </g>
        <defs>
            <clipPath id="clip0_1582_724">
                <rect width="26" height="26" fill="white"/>
            </clipPath>
        </defs>
    </symbol>
    
    <!-- SNS: Facebook -->
    <symbol id="facebook" viewBox="0 0 26 26" fill="none">
        <g clip-path="url(#clip0_1582_730)">
            <path d="M25.0716 13.0738C25.0716 6.36618 19.667 0.928589 13.0001 0.928589C6.33327 0.928589 0.928711 6.36618 0.928711 13.0738C0.928711 19.1357 5.34303 24.1603 11.114 25.0714V16.5845H8.04897V13.0738H11.114V10.3981C11.114 7.35416 12.9162 5.67281 15.6735 5.67281C16.9938 5.67281 18.3757 5.91002 18.3757 5.91002V8.89888H16.8536C15.3541 8.89888 14.8863 9.83515 14.8863 10.7966V13.0738H18.2342L17.699 16.5845H14.8863V25.0714C20.6572 24.1603 25.0716 19.1357 25.0716 13.0738Z" fill="#0F0E0E"/>
        </g>
        <defs>
            <clipPath id="clip0_1582_730">
                <rect width="26" height="26" fill="white"/>
            </clipPath>
        </defs>
    </symbol>
    
    <!-- SNS: Twitter -->
    <symbol id="twitter" viewBox="0 0 26 26" fill="none">
        <path fill-rule="evenodd" clip-rule="evenodd" d="M10.404 14.0663L1.47511 23.9984H5.43053L12.265 16.3759L18.2873 24L26 23.959L16.2214 11.3577L24.5663 2.04241L20.6743 2L14.3709 9.0007L8.97798 2.01143L1 2.003L10.404 14.0663ZM21.3289 21.7122L19.3329 21.7061L5.61959 4.21042H7.76661L21.3289 21.7122Z" fill="#0F0E0E"/>
    </symbol>
    
    <!-- SNS: Instagram -->
    <symbol id="instagram" viewBox="0 0 26 26" fill="none">
        <path d="M13.0067 3.67379C16.0477 3.67379 16.4078 3.68712 17.6038 3.74045C18.7153 3.78934 19.3155 3.976 19.7156 4.13154C20.2447 4.33598 20.6271 4.58486 21.0227 4.98039C21.4229 5.38037 21.6674 5.75813 21.8719 6.28699C22.0275 6.68698 22.2143 7.29139 22.2632 8.398C22.3165 9.59794 22.3299 9.95793 22.3299 12.9933C22.3299 16.0332 22.3165 16.3932 22.2632 17.5887C22.2143 18.6997 22.0275 19.2997 21.8719 19.6997C21.6674 20.2285 21.4184 20.6107 21.0227 21.0063C20.6226 21.4063 20.2447 21.6507 19.7156 21.8551C19.3155 22.0107 18.7108 22.1973 17.6038 22.2462C16.4034 22.2995 16.0433 22.3129 13.0067 22.3129C9.96563 22.3129 9.60551 22.2995 8.40954 22.2462C7.29805 22.1973 6.69785 22.0107 6.29771 21.8551C5.76864 21.6507 5.38629 21.4018 4.9906 21.0063C4.59046 20.6063 4.34593 20.2285 4.14142 19.6997C3.98581 19.2997 3.79908 18.6953 3.75017 17.5887C3.69682 16.3887 3.68348 16.0287 3.68348 12.9933C3.68348 9.95348 3.69682 9.5935 3.75017 8.398C3.79908 7.28695 3.98581 6.68698 4.14142 6.28699C4.34593 5.75813 4.5949 5.37593 4.9906 4.98039C5.39073 4.58041 5.76864 4.33598 6.29771 4.13154C6.69785 3.976 7.3025 3.78934 8.40954 3.74045C9.60551 3.68712 9.96563 3.67379 13.0067 3.67379ZM13.0067 1.625C9.91672 1.625 9.52993 1.63833 8.31618 1.69166C7.10687 1.74499 6.27548 1.94054 5.55523 2.22053C4.80386 2.51385 4.16809 2.90049 3.53676 3.53602C2.90099 4.1671 2.51419 4.80262 2.22076 5.54925C1.94066 6.27366 1.74504 7.10029 1.69169 8.30912C1.63834 9.52684 1.625 9.91348 1.625 13.0022C1.625 16.091 1.63834 16.4776 1.69169 17.6909C1.74504 18.8997 1.94066 19.7308 2.22076 20.4507C2.51419 21.2018 2.90099 21.8373 3.53676 22.4684C4.16809 23.0995 4.80386 23.4906 5.55079 23.7795C6.27548 24.0595 7.10243 24.255 8.31173 24.3083C9.52548 24.3617 9.91228 24.375 13.0022 24.375C16.0922 24.375 16.479 24.3617 17.6927 24.3083C18.902 24.255 19.7334 24.0595 20.4537 23.7795C21.2006 23.4906 21.8364 23.0995 22.4677 22.4684C23.099 21.8373 23.4903 21.2018 23.7792 20.4552C24.0593 19.7308 24.255 18.9042 24.3083 17.6953C24.3617 16.4821 24.375 16.0954 24.375 13.0067C24.375 9.91793 24.3617 9.53128 24.3083 8.31801C24.255 7.10918 24.0593 6.27811 23.7792 5.55814C23.4991 4.80262 23.1123 4.1671 22.4766 3.53602C21.8452 2.90494 21.2095 2.51385 20.4626 2.22497C19.7379 1.94498 18.9109 1.74944 17.7016 1.69611C16.4834 1.63833 16.0966 1.625 13.0067 1.625Z" fill="#0F0E0E"/>
        <path d="M13.0067 7.15805C9.7789 7.15805 7.16023 9.7757 7.16023 13.0022C7.16023 16.2287 9.7789 18.8464 13.0067 18.8464C16.2344 18.8464 18.8531 16.2287 18.8531 13.0022C18.8531 9.7757 16.2344 7.15805 13.0067 7.15805ZM13.0067 16.7931C10.9126 16.7931 9.21426 15.0954 9.21426 13.0022C9.21426 10.909 10.9126 9.21128 13.0067 9.21128C15.1007 9.21128 16.7991 10.909 16.7991 13.0022C16.7991 15.0954 15.1007 16.7931 13.0067 16.7931Z" fill="#0F0E0E"/>
        <path d="M20.4492 6.92699C20.4492 7.68251 19.8357 8.29137 19.0843 8.29137C18.3285 8.29137 17.7194 7.67806 17.7194 6.92699C17.7194 6.17147 18.3329 5.56261 19.0843 5.56261C19.8357 5.56261 20.4492 6.17591 20.4492 6.92699Z" fill="#0F0E0E"/>
    </symbol>
    
    <!-- SNS: LinkedIn -->
    <symbol id="linkedin" viewBox="0 0 26 26" fill="none">
        <path d="M22.4975 1.85718H3.50205C3.06574 1.85718 2.6473 2.0305 2.33878 2.33902C2.03026 2.64754 1.85693 3.06598 1.85693 3.5023V22.4978C1.85693 22.9341 2.03026 23.3525 2.33878 23.6611C2.6473 23.9696 3.06574 24.1429 3.50205 24.1429H22.4975C22.9338 24.1429 23.3523 23.9696 23.6608 23.6611C23.9693 23.3525 24.1426 22.9341 24.1426 22.4978V3.5023C24.1426 3.06598 23.9693 2.64754 23.6608 2.33902C23.3523 2.0305 22.9338 1.85718 22.4975 1.85718ZM8.49931 20.8418H5.14872V10.1988H8.49931V20.8418ZM6.8217 8.72396C6.44163 8.72182 6.07071 8.60715 5.75576 8.3944C5.4408 8.18166 5.19593 7.88038 5.05203 7.5286C4.90814 7.17682 4.87168 6.7903 4.94725 6.41781C5.02282 6.04533 5.20704 5.70358 5.47665 5.43569C5.74626 5.1678 6.08919 4.98578 6.46215 4.91261C6.83511 4.83943 7.2214 4.87837 7.57225 5.02452C7.9231 5.17067 8.22279 5.41748 8.43351 5.73379C8.64423 6.0501 8.75652 6.42175 8.75622 6.80182C8.7598 7.05628 8.71212 7.30886 8.61602 7.5445C8.51991 7.78014 8.37735 7.99401 8.19682 8.17338C8.0163 8.35275 7.80151 8.49394 7.56526 8.58853C7.329 8.68312 7.07613 8.72918 6.8217 8.72396ZM20.8493 20.8511H17.5003V15.0367C17.5003 13.3219 16.7713 12.7927 15.8304 12.7927C14.8368 12.7927 13.8618 13.5417 13.8618 15.08V20.8511H10.5112V10.2066H13.7334V11.6815H13.7767C14.1001 11.0268 15.233 9.90789 16.9617 9.90789C18.8312 9.90789 20.8509 11.0175 20.8509 14.2675L20.8493 20.8511Z" fill="#0F0E0E"/>
    </symbol>
    
    <!-- SNS: Blogger -->
    <symbol id="blogger" viewBox="0 0 24 24" fill="none">
        <path d="M301.4,286.7h-91.1c-8.6,0-15.5,6.9-15.5,15.4c0,8.4,6.9,15.4,15.5,15.4h91.1c8.5,0,15.4-7,15.4-15.4 C316.8,293.6,309.9,286.7,301.4,286.7z" fill="#0F0E0E"/>
        <path d="M210.3,225h44.8c8.6,0,15.5-7,15.5-15.5s-6.9-15.4-15.5-15.4h-44.8c-8.6,0-15.5,6.9-15.5,15.4S201.8,225,210.3,225z" fill="#0F0E0E"/>
        <path d="M256,0C114.6,0,0,114.6,0,256s114.6,256,256,256s256-114.6,256-256S397.4,0,256,0z M383,303.3 c-0.3,44.4-36.4,80.7-80.8,80.7h-92.9c-44.5,0-80.8-36.4-80.8-80.7v-94.4c0-44.5,36.4-80.9,80.8-80.9h56.6 c20.9,2.5,51.2,20.4,62.4,44.1c3.1,6.7,4.7,7.7,7.3,27.5c1.4,10.2,2,17.7,6.6,21.9c6.5,5.8,30.2,1.9,34.9,5.6l3.6,2.8l2.1,4.4 l0.8,3.6L383,303.3z" fill="#0F0E0E"/>
    </symbol>
    
    <!-- SNS: Threads -->
    <symbol id="threads" viewBox="0 0 22 25" fill="none">
        <rect width="22" height="25" fill="url(#pattern0_1582_737)"/>
        <defs>
            <pattern id="pattern0_1582_737" patternContentUnits="objectBoundingBox" width="1" height="1">
                <use xlink:href="#image0_1582_737" transform="matrix(0.00263047 0 0 0.00231481 0.0107323 0)"/>
            </pattern>
        </defs>
    </symbol>
    
    <!-- SNS: TikTok -->
    <symbol id="tiktok" viewBox="0 0 26 26" fill="none">
        <rect width="26" height="26" fill="url(#pattern0_1928_1029)"/>
        <defs>
            <pattern id="pattern0_1928_1029" patternContentUnits="objectBoundingBox" width="1" height="1">
                <use xlink:href="#image0_1928_1029" transform="scale(0.00277778)"/>
            </pattern>
        </defs>
    </symbol>
    
    <!-- SNS: Naver Blog -->
    <symbol id="naverblog" viewBox="-32 0 512 512" fill="none">
        <path d="M16 32C11.8333 32 8.125 33.5833 4.875 36.75C1.625 39.9167 0 43.6667 0 48V464C0 468.333 1.625 472.083 4.875 475.25C8.125 478.417 11.8333 480 16 480H432C436.167 480 439.875 478.417 443.125 475.25C446.375 472.083 448 468.333 448 464V48C448 43.6667 446.375 39.9167 443.125 36.75C439.875 33.5833 436.167 32 432 32H16ZM100.25 144H186.5L261.5 256V144H347.75V368H261.5L186.5 256V368H100.25V144Z" fill="#000000"/>
    </symbol>
    
    <!-- SNS: Weibo -->
    <symbol id="weibo" viewBox="0 0 26 26" fill="none">
        <path d="M13.0067 3.67379C16.0477 3.67379 16.4078 3.68712 17.6038 3.74045C18.7153 3.78934 19.3155 3.976 19.7156 4.13154C20.2447 4.33598 20.6271 4.58486 21.0227 4.98039C21.4229 5.38037 21.6674 5.75813 21.8719 6.28699C22.0275 6.68698 22.2143 7.29139 22.2632 8.398C22.3165 9.59794 22.3299 9.95793 22.3299 12.9933C22.3299 16.0332 22.3165 16.3932 22.2632 17.5887C22.2143 18.6997 22.0275 19.2997 21.8719 19.6997C21.6674 20.2285 21.4184 20.6107 21.0227 21.0063C20.6226 21.4063 20.2447 21.6507 19.7156 21.8551C19.3155 22.0107 18.7108 22.1973 17.6038 22.2462C16.4034 22.2995 16.0433 22.3129 13.0067 22.3129C9.96563 22.3129 9.60551 22.2995 8.40954 22.2462C7.29805 22.1973 6.69785 22.0107 6.29771 21.8551C5.76864 21.6507 5.38629 21.4018 4.9906 21.0063C4.59046 20.6063 4.34593 20.2285 4.14142 19.6997C3.98581 19.2997 3.79908 18.6953 3.75017 17.5887C3.69682 16.3887 3.68348 16.0287 3.68348 12.9933C3.68348 9.95348 3.69682 9.5935 3.75017 8.398C3.79908 7.28695 3.98581 6.68698 4.14142 6.28699C4.34593 5.75813 4.5949 5.37593 4.9906 4.98039C5.39073 4.58041 5.76864 4.33598 6.29771 4.13154C6.69785 3.976 7.3025 3.78934 8.40954 3.74045C9.60551 3.68712 9.96563 3.67379 13.0067 3.67379Z" fill="#0F0E0E"/>
    </symbol>
</svg>

