<svg xmlns="http://www.w3.org/2000/svg" width="158" height="19" viewBox="0 0 158 19" fill="none">
  <g clip-path="url(#clip0_1582_845)">
    <path d="M89.9194 3.09912H95.1509C97.4733 3.09912 98.9597 4.37462 98.9597 6.28917C98.9597 7.92575 97.89 8.84017 96.5709 9.23243C96.2205 9.33114 96.1197 9.55974 96.3214 9.87148L99.464 14.55H97.7759L95.135 10.5417C94.6015 9.7234 94.2989 9.54416 93.4469 9.54416H91.8597C91.5412 9.54416 91.358 9.7234 91.358 10.0351V14.55H89.9221V3.09912H89.9194ZM97.4892 6.32034C97.4892 5.0942 96.5523 4.32526 95.1509 4.32526H91.8597C91.5412 4.32526 91.358 4.50451 91.358 4.81624V7.82704C91.358 8.13877 91.5412 8.31802 91.8597 8.31802H95.1509C96.5868 8.31802 97.4892 7.56467 97.4892 6.32294V6.32034Z" fill="white"/>
    <path d="M101.216 11.1133C101.449 12.4381 102.32 13.5188 103.655 13.5188H104.409C105.545 13.5188 106.365 12.7654 106.529 11.9004H107.833C107.649 13.4045 106.261 14.68 104.39 14.68H103.655C101.531 14.68 99.8115 12.8642 99.8115 10.3781C99.8115 7.89204 101.9 6.17493 103.639 6.17493H104.409C106.431 6.17493 107.952 7.99076 107.952 10.0196C107.952 10.2976 107.92 10.6249 107.92 10.6587H101.704C101.37 10.6587 101.17 10.8223 101.218 11.1159L101.216 11.1133ZM101.834 9.52603H106.081C106.415 9.52603 106.633 9.3286 106.548 9.00388C106.28 8.07129 105.428 7.33612 104.409 7.33612H103.639C102.718 7.33612 101.834 7.90763 101.415 8.97271C101.282 9.30003 101.481 9.52863 101.831 9.52863L101.834 9.52603Z" fill="white"/>
    <path d="M108.953 12.1757H110.29C110.391 13.0095 111.209 13.5161 112.13 13.5161H113.048C114.017 13.5161 114.619 13.0251 114.619 12.2562C114.619 11.4873 114.102 11.1781 113.183 11.03L111.511 10.7521C110.025 10.5079 109.154 9.70519 109.154 8.49464C109.154 7.07107 110.508 6.17224 111.963 6.17224H112.881C114.25 6.17224 115.705 7.16978 115.739 8.54399H114.42C114.319 7.87377 113.701 7.33344 112.884 7.33344H111.965C111.145 7.33344 110.511 7.74129 110.511 8.47905C110.511 9.08433 110.962 9.44282 111.795 9.59089L113.534 9.90262C114.988 10.165 115.973 10.6378 115.973 12.1757C115.973 13.7135 114.585 14.6773 113.048 14.6773H112.13C110.558 14.6773 109.038 13.6798 108.955 12.1757H108.953Z" fill="white"/>
    <path d="M118.378 11.1133C118.611 12.4381 119.482 13.5188 120.817 13.5188H121.571C122.707 13.5188 123.527 12.7654 123.691 11.9004H124.995C124.812 13.4045 123.423 14.68 121.552 14.68H120.817C118.694 14.68 116.974 12.8642 116.974 10.3781C116.974 7.89204 119.063 6.17493 120.801 6.17493H121.571C123.593 6.17493 125.114 7.99076 125.114 10.0196C125.114 10.2976 125.082 10.6249 125.082 10.6587H118.866C118.532 10.6587 118.333 10.8223 118.38 11.1159L118.378 11.1133ZM118.996 9.52603H123.243C123.577 9.52603 123.795 9.3286 123.71 9.00388C123.442 8.07129 122.59 7.33612 121.571 7.33612H120.801C119.88 7.33612 118.996 7.90763 118.577 8.97271C118.444 9.30003 118.643 9.52863 118.993 9.52863L118.996 9.52603Z" fill="white"/>
    <path d="M126.181 12.3237C126.181 10.8352 127.484 9.95198 129.308 9.72338L131.848 9.41165C132.148 9.37787 132.299 9.24799 132.299 8.98561C132.299 7.97249 131.545 7.33344 130.428 7.33344H129.592C128.557 7.33344 127.705 7.90495 127.636 8.93626H126.25C126.367 7.23472 127.853 6.17224 129.61 6.17224H130.428C132.283 6.17224 133.653 7.36721 133.653 9.18304V12.7316C133.653 13.3706 133.87 13.4174 134.738 13.4174V14.5448H133.785C133 14.5448 132.649 14.2331 132.482 13.7109C132.4 13.4486 132.182 13.4486 131.997 13.6278C131.429 14.2487 130.343 14.6747 129.172 14.6747C127.285 14.6747 126.181 13.7577 126.181 12.3185V12.3237ZM132.296 10.9989V10.9183C132.296 10.6404 132.113 10.4611 131.779 10.5105L129.507 10.804C128.421 10.9521 127.567 11.3444 127.567 12.2926C127.567 13.0615 128.119 13.5187 129.321 13.5187C130.993 13.5187 132.296 12.6848 132.296 10.9989Z" fill="white"/>
    <path d="M137.093 9.83776V14.5475H135.755V6.30481H137.093V6.79579C137.093 7.13869 137.326 7.18805 137.56 6.92567C137.878 6.51783 138.345 6.30481 138.964 6.30481H140.302V7.43224H138.882C137.711 7.43224 137.093 8.87139 137.093 9.83776Z" fill="white"/>
    <path d="M140.586 10.4275C140.586 8.23495 142.025 6.17493 144.562 6.17493H145.215C147.07 6.17493 148.559 7.45043 148.708 9.38056H147.37C147.269 8.30249 146.484 7.33612 145.231 7.33612H144.546C142.823 7.33612 141.971 8.79087 141.971 10.4275C141.971 12.064 142.808 13.5188 144.527 13.5188H145.231C146.433 13.5188 147.137 12.62 147.386 11.5887H148.708C148.456 13.2252 147.203 14.68 145.199 14.68H144.546C141.971 14.68 140.586 12.6018 140.586 10.4275Z" fill="white"/>
    <path d="M150.245 3.09912H151.582V6.91003C151.582 7.17241 151.784 7.35165 152.116 7.00875C152.583 6.53336 153.286 6.17487 154.17 6.17487H155.089C156.692 6.17487 157.998 7.49972 157.998 9.29997V14.55H156.66V9.47921C156.66 8.25307 155.909 7.35165 154.805 7.35165H154.035C152.548 7.35165 151.577 8.71028 151.577 10.1157V14.5474H150.239V3.09912H150.245Z" fill="white"/>
    <path d="M26.9775 16.4101C27.2509 16.1737 27.4473 15.8931 27.5667 15.5736C27.6862 15.2515 27.7472 14.9631 27.7472 14.7086C27.7472 14.4903 27.7287 14.2799 27.6464 14.0643C27.0333 12.4329 23.811 4.85266 23.811 4.85266H26.0485C26.0485 4.85266 28.6045 11.0951 28.6656 11.2431C28.7266 11.3912 28.8248 11.5315 28.9629 11.5315C29.1009 11.5315 29.1964 11.4354 29.2628 11.2431L31.779 4.85266H33.9953L29.3212 16.1321C29 16.94 28.586 17.5349 28.0737 17.9116C27.5614 18.2909 26.9244 18.4779 26.1653 18.4779H24.8462V16.766H25.945C26.3591 16.766 26.7015 16.6465 26.9749 16.4101H26.9775Z" fill="white"/>
    <path d="M35.2027 13.9344C34.5445 13.42 34.2153 12.7394 34.2153 11.8952C34.2153 11.0509 34.5551 10.3391 35.2345 9.80657C35.914 9.27403 36.8191 8.93632 37.9525 8.79604L40.7686 8.48691C40.9544 8.46093 41.0924 8.40638 41.1773 8.32325C41.2649 8.24012 41.3074 8.13361 41.3074 8.00632C41.3074 7.66082 41.2278 7.36727 41.0685 7.13088C40.9093 6.89448 40.6863 6.70744 40.3996 6.57236C40.113 6.43727 39.7839 6.36973 39.4096 6.36973H38.4515C37.8914 6.36973 37.4269 6.51261 37.0527 6.79317C36.6784 7.07632 36.4794 7.47378 36.4528 7.98814H34.2764C34.3162 7.32051 34.5285 6.73602 34.916 6.23725C35.3036 5.73588 35.8079 5.35401 36.4343 5.09164C37.0606 4.82926 37.7401 4.69678 38.4727 4.69678H39.4123C40.1847 4.69678 40.8721 4.84485 41.4693 5.1384C42.0691 5.43454 42.5443 5.84758 42.8973 6.38012C43.2503 6.91266 43.4281 7.53353 43.4281 8.23752L43.4228 14.5501H41.6869V13.7733C41.6869 13.7006 41.671 13.6253 41.6232 13.5655C41.5728 13.5006 41.5065 13.4642 41.4268 13.4538C41.3074 13.4408 41.18 13.498 41.0473 13.6279C40.7128 13.937 40.2669 14.1916 39.7096 14.3968C39.1495 14.602 38.5444 14.7059 37.8914 14.7059C36.7581 14.7059 35.8636 14.4488 35.2054 13.937L35.2027 13.9344ZM39.7786 12.7784C40.251 12.5862 40.6199 12.303 40.888 11.9315C41.1534 11.5601 41.2888 11.1028 41.2888 10.5651V10.469C41.2888 10.3157 41.2384 10.1962 41.1375 10.1131C41.0367 10.03 40.888 10.0014 40.689 10.0274L38.2922 10.3365C37.6924 10.4144 37.2199 10.5677 36.8722 10.7989C36.5245 11.0301 36.352 11.3626 36.352 11.799C36.352 12.2095 36.5086 12.5238 36.8218 12.742C37.135 12.9602 37.5915 13.0694 38.1913 13.0694C38.7912 13.0694 39.3061 12.9732 39.7812 12.781L39.7786 12.7784Z" fill="white"/>
    <path d="M76.4549 13.9344C75.7966 13.42 75.4648 12.7394 75.4648 11.8952C75.4648 11.0509 75.8046 10.3391 76.4841 9.80657C77.1635 9.27403 78.0686 8.93632 79.202 8.79604L82.0181 8.48691C82.2039 8.46093 82.3419 8.40638 82.4268 8.32325C82.5144 8.24012 82.5569 8.13361 82.5569 8.00632C82.5569 7.66082 82.4773 7.36727 82.318 7.13088C82.1588 6.89448 81.9358 6.70744 81.6492 6.57236C81.3625 6.43727 81.0334 6.36973 80.6591 6.36973H79.701C79.1409 6.36973 78.6764 6.51261 78.3022 6.79317C77.928 7.07632 77.7289 7.47378 77.7023 7.98814H75.5259C75.5657 7.32051 75.778 6.73602 76.1656 6.23725C76.5531 5.73588 77.0574 5.35401 77.6838 5.09164C78.3102 4.82926 78.9896 4.69678 79.7195 4.69678H80.6591C81.4315 4.69678 82.119 4.84485 82.7162 5.1384C83.316 5.43454 83.7911 5.84758 84.1441 6.38012C84.4971 6.91266 84.675 7.53353 84.675 8.23752L84.6697 14.5501H82.9338V13.7733C82.9338 13.7006 82.9152 13.6253 82.8728 13.5655C82.8223 13.5006 82.756 13.4642 82.6763 13.4538C82.5569 13.4408 82.4295 13.498 82.2968 13.6279C81.9624 13.937 81.5191 14.1916 80.9591 14.3968C80.399 14.602 79.7939 14.7059 79.1409 14.7059C78.0076 14.7059 77.1131 14.4488 76.4549 13.937V13.9344ZM81.0307 12.7784C81.5032 12.5862 81.8721 12.303 82.1402 11.9315C82.4056 11.5601 82.5383 11.1028 82.5383 10.5651V10.469C82.5383 10.3157 82.4879 10.1962 82.3897 10.1131C82.2888 10.03 82.1402 10.0014 81.9411 10.0274L79.5444 10.3365C78.9445 10.4144 78.4721 10.5677 78.1244 10.7989C77.7767 11.0301 77.6041 11.3626 77.6041 11.799C77.6041 12.2095 77.7607 12.5238 78.0739 12.742C78.3871 12.9602 78.8437 13.0694 79.4435 13.0694C80.0434 13.0694 80.5583 12.9732 81.0307 12.781V12.7784Z" fill="white"/>
    <path d="M47.1046 4.85005V5.38778C47.1046 5.593 47.1736 5.72549 47.3143 5.78264C47.455 5.83979 47.6381 5.78004 47.8637 5.6008C48.1557 5.33063 48.5034 5.11242 48.9015 4.94616C49.2997 4.77991 49.7217 4.69678 50.1596 4.69678H51.0992C51.7389 4.69678 52.3308 4.85784 52.8776 5.17736C53.4243 5.49948 53.8543 5.9411 54.1648 6.50482C54.478 7.07113 54.6346 7.69978 54.6346 8.39079V14.5501H52.5378V8.75707C52.5378 8.33364 52.4529 7.95177 52.2883 7.61146C52.1211 7.27115 51.8849 7.00099 51.5796 6.80356C51.2718 6.60353 50.9267 6.50482 50.5418 6.50482H49.6819C49.1882 6.50482 48.7476 6.63211 48.3521 6.88928C47.9593 7.14646 47.6541 7.49716 47.4338 7.93878C47.2135 8.383 47.1046 8.85319 47.1046 9.35456V14.5527H45.0078V4.85005H47.1073H47.1046Z" fill="white"/>
    <path d="M58.3638 14.0618C57.6312 13.6332 57.0553 13.0357 56.6359 12.2719C56.2165 11.5082 56.0068 10.6509 56.0068 9.70274C56.0068 8.75456 56.2165 7.8973 56.6359 7.13356C57.0553 6.36982 57.6312 5.77234 58.3638 5.34371C59.0963 4.91508 59.9085 4.69946 60.8003 4.69946H61.6205C62.5123 4.69946 63.3245 4.91508 64.0571 5.34371C64.7896 5.77493 65.3656 6.36982 65.785 7.13356C66.2043 7.8973 66.414 8.75456 66.414 9.70274C66.414 10.6509 66.207 11.5082 65.7956 12.2719C65.3815 13.0357 64.8082 13.6332 64.0677 14.0618C63.3272 14.493 62.5123 14.706 61.6205 14.706H60.8003C59.9085 14.706 59.0963 14.4904 58.3638 14.0618ZM62.9503 12.5317C63.3564 12.2511 63.6749 11.8615 63.9084 11.3679C64.142 10.8743 64.2588 10.3184 64.2588 9.70274C64.2588 9.08708 64.142 8.53635 63.9084 8.04797C63.6749 7.55959 63.3564 7.17253 62.9503 6.88418C62.5442 6.59583 62.0956 6.45035 61.6019 6.45035H60.8216C60.3279 6.45035 59.8793 6.59323 59.4732 6.87379C59.0671 7.15694 58.7486 7.54141 58.5151 8.02979C58.2815 8.51817 58.1647 9.07669 58.1647 9.70534C58.1647 10.334 58.2815 10.8925 58.5151 11.3809C58.7486 11.8693 59.0671 12.2537 59.4732 12.5369C59.8793 12.8201 60.3279 12.9603 60.8216 12.9603H61.6019C62.0956 12.9603 62.5442 12.8201 62.9503 12.5369V12.5317Z" fill="white"/>
    <path d="M67.8765 1.07812H69.9733V14.5501H67.8765V1.07812Z" fill="white"/>
    <path d="M74.0074 4.8501V15.7451C74.0074 16.6439 73.7871 17.3219 73.3492 17.7869C72.9086 18.2493 72.2848 18.4805 71.47 18.4805H69.6519V16.7686H70.8303C71.2046 16.7686 71.4726 16.6673 71.6399 16.4595C71.8071 16.2543 71.8894 15.9399 71.8894 15.5165V4.8501H74.0074ZM74.1056 1.07556V3.09662H71.7885V1.07816H74.1056V1.07556Z" fill="white"/>
    <path d="M15.8988 3.8577C16.5968 4.08371 17.2524 4.34088 17.8549 4.62664C18.0009 4.69678 18.0487 4.58248 18.0168 4.48636C17.7965 3.83692 17.5391 3.21865 17.2444 2.62896C17.0135 2.16916 16.6366 1.80028 16.1668 1.57427C15.567 1.28592 14.9326 1.03394 14.2691 0.818324C14.1709 0.787151 14.0514 0.826118 14.1257 0.976788C14.4177 1.56908 14.6831 2.20812 14.9114 2.89133C15.0653 3.34854 15.429 3.70443 15.8961 3.8551L15.8988 3.8577Z" fill="white"/>
    <path d="M10.5904 15.3164C9.86849 15.3554 9.69862 14.9553 9.71189 14.4774C9.73578 13.5136 9.75436 12.4953 9.76232 11.4328C9.76763 10.921 10.0012 10.508 10.7125 10.5028C11.883 10.4924 13.0058 10.4742 14.0595 10.4482C14.4178 10.4378 14.7151 10.6041 14.6912 11.0821C14.654 11.864 14.585 12.6252 14.4895 13.3577C14.4337 13.7838 14.6275 14.0877 15.1663 13.9838C16.0953 13.8045 17.1092 13.5396 17.8789 13.2772C18.2823 13.1395 18.5743 12.7966 18.6407 12.3836C18.7813 11.5185 18.853 10.6197 18.853 9.70268C18.853 9.29483 18.6354 9.15195 18.3381 9.13377C17.7223 9.0948 17.0455 9.06103 16.3156 9.03246C15.8803 9.01427 15.5432 8.85841 15.5087 8.25053C15.4397 6.97763 15.2698 5.76188 15.023 4.62926C14.9274 4.19024 14.5797 3.84733 14.1338 3.75381C13.0244 3.52002 11.7158 3.34597 10.4816 3.28102C10.0171 3.25764 9.6535 3.01345 9.62696 2.43415C9.59511 1.74055 9.5606 1.09631 9.52344 0.509214C9.50752 0.252036 9.30845 0.00524902 8.94217 0.00524902C7.56198 0.00524902 6.22956 0.161115 4.97678 0.449466C4.49371 0.561169 4.09558 0.891084 3.90182 1.3379C3.62844 1.96656 3.3869 2.64977 3.17722 3.37454C3.08167 3.70965 2.81359 3.97203 2.4712 4.06554C1.99875 4.19543 1.54222 4.34091 1.10693 4.49677C0.756577 4.62406 0.49381 4.91241 0.403567 5.26571C0.239006 5.91255 0.111604 6.52822 0.00543505 7.38288C-0.0370324 7.7128 0.231043 7.87646 0.504427 7.83489C1.12286 7.74137 1.72271 7.66344 2.42873 7.5907C2.89587 7.54134 3.26746 7.18026 3.31789 6.72305C3.36832 6.23727 3.43202 5.76188 3.509 5.29688C3.58597 4.82409 3.96287 4.45261 4.44593 4.37728C5.32713 4.23959 6.2508 4.14088 7.20897 4.08892C7.984 4.04736 8.18837 4.48378 8.1751 5.00593C8.15121 5.94892 8.13529 6.94646 8.12733 7.98296C8.12202 8.48693 7.89906 8.88958 7.19304 8.89737C5.82878 8.90777 4.53352 8.93115 3.33382 8.96751C2.77643 8.9831 2.33053 9.2169 2.33849 9.97804C2.35441 11.3834 2.48712 12.7213 2.69681 13.9136C2.76316 14.2955 2.65169 14.68 2.01998 14.5215C1.59796 14.4098 1.18921 14.2877 0.796391 14.1578C0.509736 14.0617 0.440726 14.2591 0.491156 14.441C0.737998 15.3346 1.05385 16.1789 1.42809 16.9634C1.58469 17.2933 1.86338 17.5557 2.20578 17.7012C2.80828 17.9532 3.43999 18.1714 4.09823 18.3532C4.54414 18.4779 4.5813 18.187 4.49106 17.9428C4.30261 17.431 4.12743 16.8855 3.97614 16.3114C3.89651 16.0126 3.9549 15.6905 4.47248 15.7866C5.40941 15.9607 6.6622 16.0906 7.51155 16.1295C7.95215 16.1503 8.2335 16.288 8.25473 16.8179C8.27862 17.3894 8.30516 17.9298 8.33436 18.4337C8.35293 18.7481 8.48034 18.9949 8.94217 18.9949C9.95343 18.9949 10.9408 18.9143 11.8857 18.7637C12.2812 18.7013 12.605 18.4234 12.7271 18.0493C12.958 17.3349 13.1624 16.5556 13.3296 15.7191C13.3986 15.3762 13.3216 15.0437 12.751 15.1164C12.0529 15.2073 11.3097 15.2723 10.5878 15.3112L10.5904 15.3164Z" fill="white"/>
  </g>
  <defs>
    <clipPath id="clip0_1582_845">
      <rect width="158" height="19" fill="white"/>
    </clipPath>
  </defs>
</svg>